<?xml version="1.0" encoding="UTF-8" standalone="no"?>
<!-- Created with Inkscape (http://www.inkscape.org/) -->

<svg
   xmlns:dc="http://purl.org/dc/elements/1.1/"
   xmlns:cc="http://creativecommons.org/ns#"
   xmlns:rdf="http://www.w3.org/1999/02/22-rdf-syntax-ns#"
   xmlns:svg="http://www.w3.org/2000/svg"
   xmlns="http://www.w3.org/2000/svg"
   xmlns:sodipodi="http://sodipodi.sourceforge.net/DTD/sodipodi-0.dtd"
   xmlns:inkscape="http://www.inkscape.org/namespaces/inkscape"
   width="744.09448819"
   height="1052.3622047"
   id="svg2"
   version="1.1"
   inkscape:version="0.48.4 r9939"
   sodipodi:docname="New document 1">
  <defs
     id="defs4" />
  <sodipodi:namedview
     id="base"
     pagecolor="#ffffff"
     bordercolor="#666666"
     borderopacity="1.0"
     inkscape:pageopacity="0.0"
     inkscape:pageshadow="2"
     inkscape:zoom="2.8284271"
     inkscape:cx="295.99201"
     inkscape:cy="727.82637"
     inkscape:document-units="px"
     inkscape:current-layer="layer1"
     showgrid="false"
     inkscape:window-width="1920"
     inkscape:window-height="1144"
     inkscape:window-x="0"
     inkscape:window-y="27"
     inkscape:window-maximized="1" />
  <metadata
     id="metadata7">
    <rdf:RDF>
      <cc:Work
         rdf:about="">
        <dc:format>image/svg+xml</dc:format>
        <dc:type
           rdf:resource="http://purl.org/dc/dcmitype/StillImage" />
        <dc:title></dc:title>
      </cc:Work>
    </rdf:RDF>
  </metadata>
  <g
     inkscape:label="Layer 1"
     inkscape:groupmode="layer"
     id="layer1">
    <rect
       style="fill:#ff6600;fill-opacity:1;stroke:none"
       id="rect3875"
       width="40"
       height="40"
       x="173.01561"
       y="370.39099"
       ry="13.0625"
       rx="13.0625"
       inkscape:export-filename="/home/qasim/Documents/desktop_icons/music.png"
       inkscape:export-xdpi="90"
       inkscape:export-ydpi="90" />
    <g
       id="g10657"
       transform="translate(-65.48023,-66.605339)"
       inkscape:export-filename="/home/qasim/Documents/desktop_icons/calculator.png"
       inkscape:export-xdpi="90"
       inkscape:export-ydpi="90">
      <rect
         style="fill:#808080;fill-opacity:1;stroke:none"
         id="rect3900"
         width="40"
         height="40"
         x="239.18376"
         y="393.11588"
         ry="13.0625"
         rx="13.0625" />
      <g
         transform="translate(-69.648148,-27.8107)"
         id="g10637">
        <g
           id="g10627"
           transform="translate(22.759766,31.75)">
          <g
             transform="matrix(0.84507042,0,0,0.84507042,44.127602,55.953198)"
             id="g10516">
            <path
               sodipodi:type="arc"
               style="fill:#b3b3b3;fill-opacity:1;stroke:none"
               id="path10510"
               sodipodi:cx="299.6875"
               sodipodi:cy="392.79968"
               sodipodi:rx="8.875"
               sodipodi:ry="8.875"
               d="m 308.5625,392.79968 c 0,4.90153 -3.97347,8.875 -8.875,8.875 -4.90153,0 -8.875,-3.97347 -8.875,-8.875 0,-4.90152 3.97347,-8.875 8.875,-8.875 4.90153,0 8.875,3.97348 8.875,8.875 z"
               transform="translate(0,15.270898)" />
            <text
               xml:space="preserve"
               style="font-size:19.61952972px;font-style:normal;font-variant:normal;font-weight:bold;font-stretch:normal;text-align:center;line-height:125%;letter-spacing:0px;word-spacing:0px;writing-mode:lr-tb;text-anchor:middle;fill:#ffffff;fill-opacity:1;stroke:none;font-family:Arial;-inkscape-font-specification:Sans Bold"
               x="299.69229"
               y="415.00159"
               id="text10512"
               sodipodi:linespacing="125%"><tspan
                 sodipodi:role="line"
                 id="tspan10514"
                 x="299.69229"
                 y="415.00159">+</tspan></text>
          </g>
          <g
             transform="translate(-21.875894,51.327636)"
             id="g10570">
            <path
               sodipodi:type="arc"
               style="fill:#b3b3b3;fill-opacity:1;stroke:none"
               id="path10561"
               sodipodi:cx="299.6875"
               sodipodi:cy="392.79968"
               sodipodi:rx="8.875"
               sodipodi:ry="8.875"
               d="m 308.5625,392.79968 c 0,4.90153 -3.97347,8.875 -8.875,8.875 -4.90153,0 -8.875,-3.97347 -8.875,-8.875 0,-4.90152 3.97347,-8.875 8.875,-8.875 4.90153,0 8.875,3.97348 8.875,8.875 z"
               transform="matrix(0.84507042,0,0,0.84507042,66.003496,34.280546)" />
            <text
               xml:space="preserve"
               style="font-size:16.57988358px;font-style:normal;font-variant:normal;font-weight:bold;font-stretch:normal;text-align:center;line-height:125%;letter-spacing:0px;word-spacing:0px;writing-mode:lr-tb;text-anchor:middle;fill:#ffffff;fill-opacity:1;stroke:none;font-family:Arial;-inkscape-font-specification:Sans Bold"
               x="319.26865"
               y="372.07709"
               id="text10563"
               sodipodi:linespacing="125%"><tspan
                 sodipodi:role="line"
                 id="tspan10565"
                 x="319.26865"
                 y="372.07709">ร</tspan></text>
          </g>
        </g>
        <g
           id="g10617"
           transform="translate(21,31.75)">
          <g
             transform="translate(18.20691,21.230995)"
             id="g10532">
            <path
               transform="matrix(0.84507042,0,0,0.84507042,45.055458,47.627187)"
               d="m 308.5625,392.79968 c 0,4.90153 -3.97347,8.875 -8.875,8.875 -4.90153,0 -8.875,-3.97347 -8.875,-8.875 0,-4.90152 3.97347,-8.875 8.875,-8.875 4.90153,0 8.875,3.97348 8.875,8.875 z"
               sodipodi:ry="8.875"
               sodipodi:rx="8.875"
               sodipodi:cy="392.79968"
               sodipodi:cx="299.6875"
               id="path10523"
               style="fill:#b3b3b3;fill-opacity:1;stroke:none"
               sodipodi:type="arc" />
            <text
               sodipodi:linespacing="125%"
               id="text10525"
               y="383.87341"
               x="297.9158"
               style="font-size:16.57988358px;font-style:normal;font-variant:normal;font-weight:bold;font-stretch:normal;text-align:center;line-height:125%;letter-spacing:0px;word-spacing:0px;writing-mode:lr-tb;text-anchor:middle;fill:#ffffff;fill-opacity:1;stroke:none;font-family:Arial;-inkscape-font-specification:Sans Bold"
               xml:space="preserve"><tspan
                 y="383.87341"
                 x="297.9158"
                 id="tspan10527"
                 sodipodi:role="line">-</tspan></text>
          </g>
          <g
             transform="translate(-8.2212054,51.327636)"
             id="g10586">
            <path
               transform="matrix(0.84507042,0,0,0.84507042,71.483573,34.280546)"
               d="m 308.5625,392.79968 c 0,4.90153 -3.97347,8.875 -8.875,8.875 -4.90153,0 -8.875,-3.97347 -8.875,-8.875 0,-4.90152 3.97347,-8.875 8.875,-8.875 4.90153,0 8.875,3.97348 8.875,8.875 z"
               sodipodi:ry="8.875"
               sodipodi:rx="8.875"
               sodipodi:cy="392.79968"
               sodipodi:cx="299.6875"
               id="path10577"
               style="fill:#b3b3b3;fill-opacity:1;stroke:none"
               sodipodi:type="arc" />
            <text
               sodipodi:linespacing="125%"
               id="text10579"
               y="372.08115"
               x="324.74466"
               style="font-size:16.57988358px;font-style:normal;font-variant:normal;font-weight:bold;font-stretch:normal;text-align:center;line-height:125%;letter-spacing:0px;word-spacing:0px;writing-mode:lr-tb;text-anchor:middle;fill:#ffffff;fill-opacity:1;stroke:none;font-family:Arial;-inkscape-font-specification:Sans Bold"
               xml:space="preserve"><tspan
                 y="372.08115"
                 x="324.74466"
                 id="tspan10581"
                 sodipodi:role="line">รท</tspan></text>
          </g>
        </g>
      </g>
    </g>
    <g
       id="g10710"
       transform="matrix(0.93394645,0,0,0.93394645,12.522885,26.752966)"
       inkscape:export-filename="/home/qasim/Documents/desktop_icons/music.png"
       inkscape:export-xdpi="90"
       inkscape:export-ydpi="90">
      <g
         id="g10698">
        <path
           sodipodi:type="arc"
           style="fill:#ffffff;fill-opacity:1;stroke:none"
           id="path10688"
           sodipodi:cx="186.54361"
           sodipodi:cy="400.6749"
           sodipodi:rx="5.2591066"
           sodipodi:ry="4.1542525"
           d="m 191.80272,400.6749 c 0,2.29433 -2.35459,4.15425 -5.25911,4.15425 -2.90452,0 -5.25911,-1.85992 -5.25911,-4.15425 0,-2.29433 2.35459,-4.15426 5.25911,-4.15426 2.90452,0 5.25911,1.85993 5.25911,4.15426 z"
           transform="translate(-1.5909903,0)" />
        <rect
           style="fill:#ffffff;fill-opacity:1;stroke:none"
           id="rect10694"
           width="2.916667"
           height="19"
           x="187.30998"
           y="381.7283"
           rx="0"
           ry="14.120189" />
      </g>
      <g
         transform="translate(14.875,-4.0625)"
         id="g10702">
        <path
           transform="translate(-1.5909903,0)"
           d="m 191.80272,400.6749 c 0,2.29433 -2.35459,4.15425 -5.25911,4.15425 -2.90452,0 -5.25911,-1.85992 -5.25911,-4.15425 0,-2.29433 2.35459,-4.15426 5.25911,-4.15426 2.90452,0 5.25911,1.85993 5.25911,4.15426 z"
           sodipodi:ry="4.1542525"
           sodipodi:rx="5.2591066"
           sodipodi:cy="400.6749"
           sodipodi:cx="186.54361"
           id="path10704"
           style="fill:#ffffff;fill-opacity:1;stroke:none"
           sodipodi:type="arc" />
        <rect
           ry="14.120189"
           rx="0"
           y="381.7283"
           x="187.30998"
           height="19"
           width="2.916667"
           id="rect10706"
           style="fill:#ffffff;fill-opacity:1;stroke:none" />
      </g>
      <rect
         transform="matrix(0.96166161,-0.27423884,0.01162803,0.99993239,0,0)"
         rx="1.5784053"
         ry="1.6987989"
         y="430.52866"
         x="189.52617"
         height="6.433589"
         width="18.50473"
         id="rect10708"
         style="fill:#ffffff;fill-opacity:1;stroke:none" />
    </g>
    <g
       id="g10955"
       transform="translate(0,-136.11805)">
      <path
         transform="matrix(0.90873157,0,0,0.90873157,65.550931,71.133381)"
         d="m 219.9102,351.53098 c 0,12.15506 -9.85363,22.00869 -22.0087,22.00869 -12.15506,0 -22.00869,-9.85363 -22.00869,-22.00869 0,-12.15507 9.85363,-22.0087 22.00869,-22.0087 12.15507,0 22.0087,9.85363 22.0087,22.0087 z"
         sodipodi:ry="22.008699"
         sodipodi:rx="22.008699"
         sodipodi:cy="351.53098"
         sodipodi:cx="197.9015"
         id="path10719"
         style="fill:#ffcc00;fill-opacity:1;stroke:none"
         sodipodi:type="arc" />
      <path
         transform="matrix(0.95823255,0,0,0.95823255,144.26596,34.675538)"
         inkscape:transform-center-x="-4.3200687"
         d="m 116.72676,371.41833 c 0,1.77208 -15.51711,10.73088 -17.051773,9.84485 -1.534659,-0.88604 -1.534659,-18.80365 0,-19.68969 1.534663,-0.88603 17.051773,8.07277 17.051773,9.84484 z"
         inkscape:randomized="0"
         inkscape:rounded="0.09"
         inkscape:flatsided="true"
         sodipodi:arg2="1.0471976"
         sodipodi:arg1="0"
         sodipodi:r2="5.5859756"
         sodipodi:r1="11.367846"
         sodipodi:cy="371.41833"
         sodipodi:cx="105.35891"
         sodipodi:sides="3"
         id="path10724"
         style="fill:#ffffff;fill-opacity:1;stroke:none"
         sodipodi:type="star" />
    </g>
    <g
       id="g10929"
       transform="translate(0,-136.11805)">
      <path
         sodipodi:type="arc"
         style="fill:#d35f5f;fill-opacity:1;stroke:none"
         id="path10742"
         sodipodi:cx="197.9015"
         sodipodi:cy="351.53098"
         sodipodi:rx="22.008699"
         sodipodi:ry="22.008699"
         d="m 219.9102,351.53098 c 0,12.15506 -9.85363,22.00869 -22.0087,22.00869 -12.15506,0 -22.00869,-9.85363 -22.00869,-22.00869 0,-12.15507 9.85363,-22.0087 22.00869,-22.0087 12.15507,0 22.0087,9.85363 22.0087,22.0087 z"
         transform="matrix(0.90873157,0,0,0.90873157,65.550932,27.115984)" />
      <g
         transform="matrix(0.86063234,0,0,0.86063234,127.34771,10.616646)"
         id="g10754">
        <rect
           style="fill:#ffffff;fill-opacity:1;stroke:none"
           id="rect10750"
           width="6.8313637"
           height="23.465765"
           x="128.12961"
           y="378.61572"
           rx="2.8322198"
           ry="2.8322198" />
        <rect
           ry="2.8322198"
           rx="2.8322198"
           y="378.61572"
           x="139.35493"
           height="23.465765"
           width="6.8313637"
           id="rect10752"
           style="fill:#ffffff;fill-opacity:1;stroke:none" />
      </g>
    </g>
    <g
       id="g10935"
       transform="translate(0,-136.11805)">
      <path
         transform="matrix(0.90873157,0,0,0.90873157,118.05093,27.240984)"
         d="m 219.9102,351.53098 c 0,12.15506 -9.85363,22.00869 -22.0087,22.00869 -12.15506,0 -22.00869,-9.85363 -22.00869,-22.00869 0,-12.15507 9.85363,-22.0087 22.00869,-22.0087 12.15507,0 22.0087,9.85363 22.0087,22.0087 z"
         sodipodi:ry="22.008699"
         sodipodi:rx="22.008699"
         sodipodi:cy="351.53098"
         sodipodi:cx="197.9015"
         id="path10788"
         style="fill:#5aa02c;fill-opacity:1;stroke:none"
         sodipodi:type="arc" />
      <rect
         ry="2.4375"
         rx="2.4375"
         y="338.203"
         x="289.405"
         height="16.970564"
         width="16.970564"
         id="rect10814"
         style="fill:#ffffff;fill-opacity:1;stroke:none" />
    </g>
    <g
       id="g10949"
       transform="translate(0,-136.11805)">
      <path
         sodipodi:type="arc"
         style="fill:#c87137;fill-opacity:1;stroke:none"
         id="path10833"
         sodipodi:cx="197.9015"
         sodipodi:cy="351.53098"
         sodipodi:rx="22.008699"
         sodipodi:ry="22.008699"
         d="m 219.9102,351.53098 c 0,12.15506 -9.85363,22.00869 -22.0087,22.00869 -12.15506,0 -22.00869,-9.85363 -22.00869,-22.00869 0,-12.15507 9.85363,-22.0087 22.00869,-22.0087 12.15507,0 22.0087,9.85363 22.0087,22.0087 z"
         transform="matrix(0.90873157,0,0,0.90873157,119.11343,72.194041)" />
      <g
         transform="translate(-0.6100195,-0.0018391)"
         id="g10844">
        <path
           transform="matrix(0.84782302,0,0,0.84782302,204.70645,76.746161)"
           inkscape:transform-center-x="-3.8223038"
           d="m 116.72676,371.41833 c 0,1.77208 -15.51711,10.73088 -17.051773,9.84485 -1.534659,-0.88604 -1.534659,-18.80365 0,-19.68969 1.534663,-0.88603 17.051773,8.07277 17.051773,9.84484 z"
           inkscape:randomized="0"
           inkscape:rounded="0.09"
           inkscape:flatsided="true"
           sodipodi:arg2="1.0471976"
           sodipodi:arg1="0"
           sodipodi:r2="5.5859756"
           sodipodi:r1="11.367846"
           sodipodi:cy="371.41833"
           sodipodi:cx="105.35891"
           sodipodi:sides="3"
           id="path10835"
           style="fill:#ffffff;fill-opacity:1;stroke:none"
           sodipodi:type="star" />
        <path
           sodipodi:type="star"
           style="fill:#ffffff;fill-opacity:1;stroke:none"
           id="path10842"
           sodipodi:sides="3"
           sodipodi:cx="105.35891"
           sodipodi:cy="371.41833"
           sodipodi:r1="11.367846"
           sodipodi:r2="5.5859756"
           sodipodi:arg1="0"
           sodipodi:arg2="1.0471976"
           inkscape:flatsided="true"
           inkscape:rounded="0.09"
           inkscape:randomized="0"
           d="m 116.72676,371.41833 c 0,1.77208 -15.51711,10.73088 -17.051773,9.84485 -1.534659,-0.88604 -1.534659,-18.80365 0,-19.68969 1.534663,-0.88603 17.051773,8.07277 17.051773,9.84484 z"
           inkscape:transform-center-x="-3.8222992"
           transform="matrix(0.84782302,0,0,0.84782302,215.5496,76.746161)" />
      </g>
    </g>
    <g
       id="g10943"
       transform="translate(0,-136.11805)">
      <path
         transform="matrix(-0.90873157,0,0,0.90873157,529.29212,71.133381)"
         d="m 219.9102,351.53098 c 0,12.15506 -9.85363,22.00869 -22.0087,22.00869 -12.15506,0 -22.00869,-9.85363 -22.00869,-22.00869 0,-12.15507 9.85363,-22.0087 22.00869,-22.0087 12.15507,0 22.0087,9.85363 22.0087,22.0087 z"
         sodipodi:ry="22.008699"
         sodipodi:rx="22.008699"
         sodipodi:cy="351.53098"
         sodipodi:cx="197.9015"
         id="path10856"
         style="fill:#5d536c;fill-opacity:1;stroke:none"
         sodipodi:type="arc" />
      <g
         id="g10858"
         transform="matrix(-1,0,0,1,649.01557,-1.0624993)">
        <path
           sodipodi:type="star"
           style="fill:#ffffff;fill-opacity:1;stroke:none"
           id="path10860"
           sodipodi:sides="3"
           sodipodi:cx="105.35891"
           sodipodi:cy="371.41833"
           sodipodi:r1="11.367846"
           sodipodi:r2="5.5859756"
           sodipodi:arg1="0"
           sodipodi:arg2="1.0471976"
           inkscape:flatsided="true"
           inkscape:rounded="0.09"
           inkscape:randomized="0"
           d="m 116.72676,371.41833 c 0,1.77208 -15.51711,10.73088 -17.051773,9.84485 -1.534659,-0.88604 -1.534659,-18.80365 0,-19.68969 1.534663,-0.88603 17.051773,8.07277 17.051773,9.84484 z"
           inkscape:transform-center-x="-3.8223038"
           transform="matrix(0.84782302,0,0,0.84782302,204.70645,76.746161)" />
        <path
           transform="matrix(0.84782302,0,0,0.84782302,215.5496,76.746161)"
           inkscape:transform-center-x="-3.8222992"
           d="m 116.72676,371.41833 c 0,1.77208 -15.51711,10.73088 -17.051773,9.84485 -1.534659,-0.88604 -1.534659,-18.80365 0,-19.68969 1.534663,-0.88603 17.051773,8.07277 17.051773,9.84484 z"
           inkscape:randomized="0"
           inkscape:rounded="0.09"
           inkscape:flatsided="true"
           sodipodi:arg2="1.0471976"
           sodipodi:arg1="0"
           sodipodi:r2="5.5859756"
           sodipodi:r1="11.367846"
           sodipodi:cy="371.41833"
           sodipodi:cx="105.35891"
           sodipodi:sides="3"
           id="path10862"
           style="fill:#ffffff;fill-opacity:1;stroke:none"
           sodipodi:type="star" />
      </g>
    </g>
    <g
       id="g10939"
       transform="translate(0,-136.11805)">
      <path
         sodipodi:type="arc"
         style="fill:#5599ff;fill-opacity:1;stroke:none"
         id="path10866"
         sodipodi:cx="197.9015"
         sodipodi:cy="351.53098"
         sodipodi:rx="22.008699"
         sodipodi:ry="22.008699"
         d="m 219.9102,351.53098 c 0,12.15506 -9.85363,22.00869 -22.0087,22.00869 -12.15506,0 -22.00869,-9.85363 -22.00869,-22.00869 0,-12.15507 9.85363,-22.0087 22.00869,-22.0087 12.15507,0 22.0087,9.85363 22.0087,22.0087 z"
         transform="matrix(0.90873157,0,0,0.90873157,168.42593,27.240984)" />
      <path
         inkscape:connector-curvature="0"
         id="path10872"
         d="m 348.37775,336.21811 c -0.0285,0.003 -0.0441,0.0144 -0.0625,0.025 -0.22814,0.13171 -0.37373,1.25255 -0.42486,2.58662 -4.89246,0.19578 -8.79701,4.21889 -8.79701,9.15939 0,5.0655 4.10639,9.17189 9.17189,9.17189 5.06549,0 9.17189,-4.1381 9.17189,-9.17189 0,-0.67861 -1.67172,-0.80742 -1.79939,0 -0.6791,4.29477 -3.30413,7.36 -7.3725,7.36 -4.06837,0 -7.3725,-3.29163 -7.3725,-7.36 0,-3.93689 3.0986,-7.14343 6.98513,-7.3475 0.0306,1.56879 0.17801,2.9992 0.43735,3.14893 0.58803,0.33949 6.52279,-3.09473 6.52279,-3.77372 0,-0.65778 -5.57697,-3.90538 -6.46031,-3.79871 z"
         style="fill:#ffffff;fill-opacity:1;stroke:none" />
    </g>
    <g
       id="g12083"
       inkscape:export-filename="/home/qasim/Documents/desktop_icons/phone.png"
       inkscape:export-xdpi="90"
       inkscape:export-ydpi="90">
      <rect
         style="fill:#2a7fff;fill-opacity:1;stroke:none"
         id="rect10959"
         width="40"
         height="40"
         x="274.94507"
         y="331.41171"
         ry="13.0625"
         rx="13.0625" />
      <g
         style="fill:#ffffff;fill-opacity:1"
         inkscape:label="Layer 1"
         id="layer1-2"
         transform="matrix(0.19843348,0,0,0.19843348,272.61588,327.71322)">
        <path
           inkscape:connector-curvature="0"
           style="font-size:144px;font-family:DejaVu Sans;fill:#ffffff;fill-opacity:1"
           d="m 112.21094,66.939596 0.63281,0 c 28.26551,0.796979 48.42174,4.828225 60.46875,12.09375 12.70296,7.687585 19.05452,15.515702 19.05469,23.484374 -1.68767,7.17194 -4.94548,10.75787 -9.77344,10.75781 -0.28141,6e-5 -0.5861,-0.0234 -0.91406,-0.0703 l -28.61719,-9.84375 c -2.81263,-0.84368 -4.21888,-2.27337 -4.21875,-4.289061 -1.3e-4,-0.890552 0.28112,-1.921801 0.84375,-3.09375 3.18737,-3.328046 4.78112,-5.742106 4.78125,-7.242188 -1.3e-4,-1.078041 -0.79701,-1.687415 -2.39062,-1.828125 l -79.031255,0 c -1.593799,0.14071 -2.390673,0.750084 -2.390625,1.828125 -4.8e-5,1.500082 1.593701,3.914142 4.78125,7.242188 0.562447,1.125074 0.843697,2.156323 0.84375,3.09375 -5.3e-5,2.015691 -1.42974,3.445381 -4.289062,4.289061 L 43.375,113.20522 c -0.328145,0.0469 -0.632832,0.0704 -0.914062,0.0703 -4.781265,6e-5 -8.039075,-3.58587 -9.773438,-10.75781 -1e-5,-7.968672 6.374984,-15.796789 19.125,-23.484374 11.999959,-7.171775 32.132751,-11.203021 60.39844,-12.09375 l 0,0 z m 16.94531,29.039063 0,-5.273438 10.125,0 0,10.687499 c -1.2e-4,3.51569 5.64832,6.60944 16.94531,9.28125 10.82798,4.45318 16.24204,13.38286 16.24219,26.78906 l 0,34.45313 -119.882812,0 0,-34.45313 c -3e-5,-13.4062 5.437464,-22.33588 16.3125,-26.78906 11.249942,-2.67181 16.874937,-5.76556 16.875,-9.28125 l 0,-10.687499 10.195312,0 0,5.273438 33.1875,0 z M 83.945313,134.4396 c -6.2e-5,7.82815 2.765561,14.48439 8.296875,19.96875 5.531175,5.48438 12.163982,8.22657 19.898442,8.22656 7.8749,1e-5 14.55458,-2.74218 20.03906,-8.22656 5.48426,-5.48436 8.22644,-12.1406 8.22656,-19.96875 -1.2e-4,-7.78121 -2.73058,-14.43745 -8.19141,-19.96875 -5.46104,-5.53119 -12.15244,-8.29681 -20.07421,-8.29688 -7.82821,7e-5 -14.484455,2.76569 -19.968755,8.29688 -5.484439,5.5313 -8.226624,12.18754 -8.226562,19.96875 l 0,0 z m 44.015627,-0.0703 c -1.1e-4,4.35941 -1.53526,8.08597 -4.60547,11.17969 -3.07041,3.09377 -6.80869,4.64065 -11.21484,4.64063 -4.35946,2e-5 -8.0743,-1.54686 -11.14454,-4.64063 -3.070384,-3.09372 -4.605539,-6.82028 -4.605465,-11.17969 -7.4e-5,-4.45308 1.535081,-8.21479 4.605465,-11.28515 3.07024,-3.07026 6.78508,-4.60542 11.14454,-4.60547 4.40615,5e-5 8.14443,1.53521 11.21484,4.60547 3.07021,3.07036 4.60536,6.83207 4.60547,11.28515 l 0,0 z m -11.17969,-22.28906 c -9e-5,1.03131 -0.37509,1.94537 -1.125,2.74219 -0.75009,0.79693 -1.68759,1.19537 -2.8125,1.19531 -1.07821,6e-5 -2.00399,-0.39838 -2.77734,-1.19531 -0.77353,-0.79682 -1.16025,-1.71088 -1.16016,-2.74219 -9e-5,-1.12494 0.38663,-2.08587 1.16016,-2.88281 0.77335,-0.79681 1.69913,-1.19525 2.77734,-1.19531 1.12491,6e-5 2.06241,0.3985 2.8125,1.19531 0.74991,0.79694 1.12491,1.75787 1.125,2.88281 l 0,0 z m 0,44.22656 c -9e-5,1.12502 -0.37509,2.07424 -1.125,2.84766 -0.75009,0.77345 -1.68759,1.16017 -2.8125,1.16016 -1.07821,1e-5 -2.00399,-0.38671 -2.77734,-1.16016 -0.77353,-0.77342 -1.16025,-1.72264 -1.16016,-2.84766 -9e-5,-1.0781 0.38663,-2.0156 1.16016,-2.8125 0.77335,-0.79685 1.69913,-1.19529 2.77734,-1.19531 1.12491,2e-5 2.06241,0.39846 2.8125,1.19531 0.74991,0.7969 1.12491,1.7344 1.125,2.8125 l 0,0 z m -15.67969,-43.875 c 0.65617,0.0938 1.28899,0.586 1.89844,1.47657 0.60929,0.89068 0.84367,1.87505 0.70313,2.95312 -0.14071,1.07818 -0.65634,1.92193 -1.54688,2.53125 -0.8907,0.70318 -1.87508,0.97271 -2.953125,0.80859 -1.0782,-0.16401 -1.945387,-0.69135 -2.601562,-1.58203 -0.656324,-0.93744 -0.890698,-1.93353 -0.703125,-2.98828 0.187426,-1.05463 0.726488,-1.93353 1.617187,-2.63672 0.70305,-0.46869 1.453049,-0.70306 2.25,-0.70312 0.234298,6e-5 0.679605,0.0469 1.335935,0.14062 l 0,0 z m 27.91407,37.26563 c 0.70301,0.89064 0.97254,1.87502 0.80859,2.95312 -0.16417,1.07815 -0.71495,1.96877 -1.65234,2.67188 -0.70323,0.46876 -1.45323,0.70314 -2.25,0.70312 -0.23448,2e-5 -0.66808,-0.0469 -1.30079,-0.14062 -0.63291,-0.0937 -1.30088,-0.60936 -2.0039,-1.54688 -0.60948,-0.8906 -0.83213,-1.86326 -0.66797,-2.91797 0.16396,-1.05466 0.69131,-1.91013 1.58203,-2.5664 0.89052,-0.60935 1.8749,-0.84373 2.95313,-0.70313 1.07802,0.14065 1.92176,0.65628 2.53125,1.54688 l 0,0 z M 92.945313,123.54116 c 1.124928,0.37505 1.921802,1.04301 2.390625,2.0039 0.468677,0.96099 0.538989,1.95708 0.210937,2.98829 -0.328197,1.03129 -0.984447,1.79301 -1.96875,2.28515 -0.984445,0.49223 -1.992256,0.5977 -3.023437,0.31641 -1.031317,-0.32809 -1.757879,-0.89058 -2.179688,-1.6875 -0.42194,-0.79683 -0.632877,-1.49996 -0.632812,-2.10938 -6.5e-5,-0.42183 0.07025,-0.8437 0.210937,-1.26562 0.374935,-1.0312 1.042903,-1.79292 2.003906,-2.28516 0.96087,-0.49214 1.956962,-0.57417 2.988282,-0.24609 l 0,0 z m 39.199217,13.92187 c 0.96083,-0.46871 1.95692,-0.53902 2.98828,-0.21093 1.03114,0.32816 1.74598,0.89065 2.14453,1.6875 0.39833,0.7969 0.59754,1.50003 0.59766,2.10937 -1.2e-4,0.37503 -0.0704,0.77347 -0.21094,1.19531 -0.37511,1.03128 -1.04308,1.793 -2.0039,2.28516 -0.96105,0.49221 -1.95715,0.55081 -2.98828,0.17578 -1.03136,-0.3281 -1.79308,-0.97263 -2.28516,-1.93359 -0.4923,-0.96091 -0.57433,-1.98044 -0.24609,-3.0586 0.37489,-1.03121 1.04286,-1.78121 2.0039,-2.25 l 0,0 z M 88.375,138.9396 c 0.421809,-0.79685 1.148371,-1.35934 2.179688,-1.6875 1.031181,-0.32809 2.038992,-0.25778 3.023437,0.21093 0.984303,0.46879 1.640553,1.21879 1.96875,2.25 0.328052,1.12503 0.25774,2.168 -0.210937,3.12891 -0.468823,0.96097 -1.218822,1.62893 -2.25,2.00391 -1.12507,0.28127 -2.168037,0.1758 -3.128907,-0.31641 -0.961003,-0.49216 -1.628971,-1.25388 -2.003906,-2.28516 -0.14069,-0.42184 -0.211002,-0.82028 -0.210937,-1.19531 -6.5e-5,-0.60934 0.210872,-1.31247 0.632812,-2.10937 l 0,0 z m 44.29688,-15.39844 c 1.03113,-0.32808 2.02723,-0.24605 2.98828,0.24609 0.96082,0.49224 1.62879,1.25396 2.0039,2.28516 0.14051,0.42192 0.21082,0.82036 0.21094,1.19531 -1.2e-4,0.60942 -0.19933,1.30083 -0.59766,2.07422 -0.39855,0.77348 -1.11339,1.3477 -2.14453,1.72266 -1.03136,0.32816 -2.05089,0.24613 -3.05859,-0.2461 -1.00792,-0.49214 -1.65245,-1.25386 -1.93359,-2.28515 -0.32824,-1.03121 -0.24621,-2.0273 0.24609,-2.98829 0.49208,-0.96089 1.2538,-1.62885 2.28516,-2.0039 l 0,0 z m -36.070317,26.15625 c 0.656175,-0.84373 1.523362,-1.34763 2.601562,-1.51172 1.078045,-0.16404 2.062425,0.0586 2.953125,0.66797 0.89054,0.65627 1.42961,1.53518 1.61719,2.63672 0.18742,1.10158 -0.0704,2.0508 -0.77344,2.84765 -0.60945,0.93752 -1.24227,1.45314 -1.89844,1.54688 -0.65633,0.0938 -1.101637,0.14064 -1.335935,0.14062 -0.796951,2e-5 -1.54695,-0.23436 -2.25,-0.70312 -0.890699,-0.70311 -1.394605,-1.3828 -1.511719,-2.03906 -0.11726,-0.65623 -0.175854,-1.10155 -0.175781,-1.33594 -7.3e-5,-0.79686 0.257739,-1.54685 0.773438,-2.25 l 0,0 z m 26.015627,-35.78906 c 0.70302,-0.89057 1.37099,-1.38276 2.0039,-1.47657 0.63271,-0.0937 1.06631,-0.14056 1.30079,-0.14062 0.79677,6e-5 1.54677,0.23443 2.25,0.70312 0.93739,0.70319 1.45301,1.37115 1.54687,2.00391 0.0936,0.63287 0.14052,1.04302 0.14063,1.23047 -1.1e-4,0.8438 -0.28136,1.64068 -0.84375,2.39062 -0.60949,0.89068 -1.23058,1.38287 -1.86329,1.47657 -0.63291,0.0938 -1.06651,0.14067 -1.30078,0.14062 -0.84385,5e-5 -1.61729,-0.2812 -2.32031,-0.84375 -0.89072,-0.60932 -1.38291,-1.24213 -1.47656,-1.89844 -0.0938,-0.65619 -0.14073,-1.1015 -0.14063,-1.33593 -1e-4,-0.79682 0.23428,-1.54682 0.70313,-2.25 l 0,0 z"
           id="flowRoot2168" />
      </g>
    </g>
  </g>
</svg>
