<?xml version="1.0" encoding="UTF-8" standalone="no"?>
<!-- Created with Inkscape (http://www.inkscape.org/) -->

<svg
   xmlns:dc="http://purl.org/dc/elements/1.1/"
   xmlns:cc="http://creativecommons.org/ns#"
   xmlns:rdf="http://www.w3.org/1999/02/22-rdf-syntax-ns#"
   xmlns:svg="http://www.w3.org/2000/svg"
   xmlns="http://www.w3.org/2000/svg"
   xmlns:sodipodi="http://sodipodi.sourceforge.net/DTD/sodipodi-0.dtd"
   xmlns:inkscape="http://www.inkscape.org/namespaces/inkscape"
   width="744.09448819"
   height="1052.3622047"
   id="svg2"
   version="1.1"
   inkscape:version="0.48.4 r9939"
   sodipodi:docname="New document 1">
  <defs
     id="defs4" />
  <sodipodi:namedview
     id="base"
     pagecolor="#ffffff"
     bordercolor="#666666"
     borderopacity="1.0"
     inkscape:pageopacity="0.0"
     inkscape:pageshadow="2"
     inkscape:zoom="3.959798"
     inkscape:cx="218.25539"
     inkscape:cy="459.45603"
     inkscape:document-units="px"
     inkscape:current-layer="layer1"
     showgrid="false"
     inkscape:window-width="1920"
     inkscape:window-height="1144"
     inkscape:window-x="0"
     inkscape:window-y="27"
     inkscape:window-maximized="1" />
  <metadata
     id="metadata7">
    <rdf:RDF>
      <cc:Work
         rdf:about="">
        <dc:format>image/svg+xml</dc:format>
        <dc:type
           rdf:resource="http://purl.org/dc/dcmitype/StillImage" />
        <dc:title></dc:title>
      </cc:Work>
    </rdf:RDF>
  </metadata>
  <g
     inkscape:label="Layer 1"
     inkscape:groupmode="layer"
     id="layer1">
    <path
       style="fill:#ffe680;fill-opacity:1;stroke:none"
       d="m 110.89652,491.70694 22.11035,0 17.46749,0 17.4675,0 17.46749,0 17.46749,0 17.46749,0 17.46749,0 0,88.12984 -17.46749,0 -17.46749,-3.39286 -17.46749,3.39286 -17.46749,0 -17.4675,0 -17.46749,0 -17.46749,0 -17.467486,0 0,-11.01623 0,-11.01623 0,-11.01623 0,-11.01623 0,-11.01623 0,-11.01623 0,-11.01623 c 1.08157,-1.08157 12.261056,-10.45265 12.824626,-11.01623 z"
       id="rect2992"
       inkscape:connector-curvature="0"
       sodipodi:nodetypes="ccccccccccccccccccccccccc" />
    <path
       style="fill:#ffcc00;fill-opacity:1;stroke:none"
       d="m 107.83688,500.81888 c 27.13924,0 57.18267,0 84.32191,0 l 6.61785,8.125 7.00933,-8.125 22.46212,0 0,70.2056 -120.41121,0 c 0,-16.18349 0,-32.36697 0,-48.55046 l 6.12405,-5.11389 -6.12405,-4.35629 z"
       id="rect2989"
       inkscape:connector-curvature="0"
       sodipodi:nodetypes="ccccccccccc" />
    <text
       xml:space="preserve"
       style="font-size:40px;font-style:normal;font-variant:normal;font-weight:normal;font-stretch:normal;text-align:center;line-height:125%;letter-spacing:0px;word-spacing:0px;writing-mode:lr-tb;text-anchor:middle;fill:#000000;fill-opacity:1;stroke:none;font-family:Saab;-inkscape-font-specification:Saab"
       x="165.66501"
       y="550.31641"
       id="text2985"
       sodipodi:linespacing="125%"><tspan
         sodipodi:role="line"
         id="tspan2987"
         x="165.66501"
         y="550.31641">Play</tspan></text>
  </g>
</svg>
